Coordinates
version=1
nRows=10
nColumns=40
inDegrees=yes

Units are S.I. units (second, meters, Newtons, ...)
If the header above contains a line with 'inDegrees', this indicates whether rotational values are in degrees (yes) or radians (no).

endheader
time	pelvis_tilt	pelvis_list	pelvis_rotation	pelvis_tx	pelvis_ty	pelvis_tz	hip_flexion_r	hip_adduction_r	hip_rotation_r	knee_angle_r	knee_angle_r_beta	ankle_angle_r	subtalar_angle_r	mtp_angle_r	hip_flexion_l	hip_adduction_l	hip_rotation_l	knee_angle_l	knee_angle_l_beta	ankle_angle_l	subtalar_angle_l	mtp_angle_l	lumbar_extension	lumbar_bending	lumbar_rotation	arm_flex_r	arm_add_r	arm_rot_r	elbow_flex_r	pro_sup_r	wrist_flex_r	wrist_dev_r	arm_flex_l	arm_add_l	arm_rot_l	elbow_flex_l	pro_sup_l	wrist_flex_l	wrist_dev_l
      4.26000000	    -38.08620423	     -2.44044245	      9.77789849	      0.03412966	      0.58006264	     -1.19610224	    108.48214823	    -43.70069827	      7.48293869	     90.25219245	      1.57519792	     17.14513493	    -12.65983427	      0.00000000	    107.59738970	    -21.96344456	      6.16484433	     84.29831335	      1.47128312	     17.25826620	      1.40071006	      0.00000000	      0.00000000	      0.00000000	      0.00000000	     44.99486480	    -14.99999061	     44.99486480	     75.00017585	     45.00000026	      0.00000000	      0.00000000	     44.99486480	    -14.99999061	     44.99486480	     75.00017585	     45.00000026	      0.00000000	      0.00000000
      4.26500000	    -37.89921594	     -2.32818901	      9.60454273	      0.03393846	      0.58185464	     -1.19575673	    108.03501698	    -43.45456462	      7.28875191	     89.97197399	      1.57030718	     17.05732416	    -12.79754942	      0.00000000	    107.17841168	    -22.17071023	      6.00932064	     84.06195714	      1.46715793	     17.26473454	      1.42094610	      0.00000000	      0.00000000	      0.00000000	      0.00000000	     44.99491202	    -14.99999075	     44.99491202	     75.00017585	     45.00000026	      0.00000000	      0.00000000	     44.99491202	    -14.99999075	     44.99491202	     75.00017585	     45.00000026	      0.00000000	      0.00000000
      4.27000000	    -38.15460107	     -2.39939374	      9.74262723	      0.03316726	      0.58244061	     -1.19643942	    108.20124813	    -43.60123963	      7.22468904	     89.72996457	      1.56608332	     16.87660539	    -12.80620613	      0.00000000	    107.32171833	    -21.82941973	      6.01194067	     83.83190468	      1.46314275	     17.00916648	      1.12142613	      0.00000000	      0.00000000	      0.00000000	      0.00000000	     44.99496263	    -14.99999089	     44.99496263	     75.00017585	     45.00000026	      0.00000000	      0.00000000	     44.99496263	    -14.99999089	     44.99496263	     75.00017585	     45.00000026	      0.00000000	      0.00000000
      4.27500000	    -37.96377476	     -2.28198452	      9.55945476	      0.03300296	      0.58423143	     -1.19604152	    107.75176550	    -43.34359521	      7.02996230	     89.45378475	      1.56126307	     16.79723304	    -12.95252532	      0.00000000	    106.89273676	    -22.05223862	      5.85863813	     83.59141960	      1.45894550	     17.02933572	      1.16285149	      0.00000000	      0.00000000	      0.00000000	      0.00000000	     44.99500851	    -14.99999102	     44.99500851	     75.00017585	     45.00000026	      0.00000000	      0.00000000	     44.99500851	    -14.99999102	     44.99500851	     75.00017585	     45.00000026	      0.00000000	      0.00000000
      4.28000000	    -38.18100040	     -2.34870400	      9.66237778	      0.03227274	      0.58482338	     -1.19660352	    107.87190735	    -43.44694922	      6.95100902	     89.22854027	      1.55733181	     16.61102375	    -12.97616123	      0.00000000	    107.01633260	    -21.77577259	      5.86243935	     83.37940402	      1.45524513	     16.80732448	      0.92953530	      0.00000000	      0.00000000	      0.00000000	      0.00000000	     44.99505722	    -14.99999116	     44.99505722	     75.00017585	     45.00000026	      0.00000000	      0.00000000	     44.99505722	    -14.99999116	     44.99505722	     75.00017585	     45.00000026	      0.00000000	      0.00000000
      4.28500000	    -38.20885831	     -2.33784944	      9.69790401	      0.03181492	      0.58596612	     -1.19689196	    107.73379000	    -43.46241136	      6.83412016	     88.97107102	      1.55283813	     16.49886771	    -13.04058364	      0.00000000	    106.87254234	    -21.64373494	      5.79356141	     83.14491904	      1.45115259	     16.67236277	      0.76495550	      0.00000000	      0.00000000	      0.00000000	      0.00000000	     44.99510662	    -14.99999130	     44.99510662	     75.00017585	     45.00000026	      0.00000000	      0.00000000	     44.99510662	    -14.99999130	     44.99510662	     75.00017585	     45.00000026	      0.00000000	      0.00000000
      4.29000000	    -38.23760660	     -2.36623799	      9.73196617	      0.03136514	      0.58707964	     -1.19715657	    107.57009292	    -43.48443141	      6.66840382	     88.72726842	      1.54858297	     16.38820894	    -13.08988400	      0.00000000	    106.76317808	    -21.51037387	      5.76159059	     82.91113318	      1.44707226	     16.51245704	      0.56157510	      0.00000000	      0.00000000	      0.00000000	      0.00000000	     44.99515704	    -14.99999145	     44.99515704	     75.00017585	     45.00000026	      0.00000000	      0.00000000	     44.99515704	    -14.99999145	     44.99515704	     75.00017585	     45.00000026	      0.00000000	      0.00000000
      4.29500000	    -38.22834604	     -2.37363911	      9.72587189	      0.03095118	      0.58828097	     -1.19732931	    107.35704324	    -43.45681388	      6.49375396	     88.47833557	      1.54423827	     16.28507400	    -13.16796497	      0.00000000	    106.61017313	    -21.44331446	      5.71514330	     82.69164150	      1.44324141	     16.41068284	      0.47950245	      0.00000000	      0.00000000	      0.00000000	      0.00000000	     44.99520691	    -14.99999159	     44.99520691	     75.00017585	     45.00000026	      0.00000000	      0.00000000	     44.99520691	    -14.99999159	     44.99520691	     75.00017585	     45.00000026	      0.00000000	      0.00000000
      4.30000000	    -38.14744546	     -2.34347785	      9.64031685	      0.03065545	      0.58964075	     -1.19711960	    107.06509306	    -43.32085637	      6.30134132	     88.26315542	      1.54048267	     16.14668326	    -13.26376417	      0.00000000	    106.35740367	    -21.51661060	      5.66005369	     82.44749222	      1.43898020	     16.39226321	      0.53009244	      0.00000000	      0.00000000	      0.00000000	      0.00000000	     44.99525329	    -14.99999172	     44.99525329	     75.00017585	     45.00000026	      0.00000000	      0.00000000	     44.99525329	    -14.99999172	     44.99525329	     75.00017585	     45.00000026	      0.00000000	      0.00000000
      4.30500000	    -38.24192140	     -2.37022550	      9.70550975	      0.03009675	      0.59057641	     -1.19753848	    106.99122850	    -43.35869267	      6.19778744	     87.99294125	      1.53576654	     16.06653870	    -13.33329818	      0.00000000	    106.31788619	    -21.32745569	      5.61326269	     82.22752817	      1.43514110	     16.20527969	      0.29812959	      0.00000000	      0.00000000	      0.00000000	      0.00000000	     44.99529749	    -14.99999184	     44.99529749	     75.00017585	     45.00000026	      0.00000000	      0.00000000	     44.99529749	    -14.99999184	     44.99529749	     75.00017585	     45.00000026	      0.00000000	      0.00000000
